<svg id="Layer_1" data-name="Layer 1" xmlns="http://www.w3.org/2000/svg" viewBox="0 0 1227.24 1227.24"><defs><style>.cls-1{fill:#00114a;}.cls-2{fill:#ff7c1f;}</style></defs><circle class="cls-1" cx="556.97" cy="511.54" r="26.09"/><path class="cls-2" d="M971.36,564.63a35.74,35.74,0,0,1-68.11,15.17q-7.8.19-16.18.2A530.45,530.45,0,0,1,741.2,559.6q-2.49,0-8.65,18.7t-14.83,48.17q-13.62,51-34.6,112.77T634.28,847.48Q606.47,894,573.1,894A26.31,26.31,0,0,1,562,891.68q-24.75-10.2-40.17-56.1T506.35,722.8a711.75,711.75,0,0,1,17.31-145.06q-2.49,0-17.31,19.25-16.07,20.43-40.79,48.75a381.18,381.18,0,0,1-53.14,50.43q-28.46,22.1-51.92,22.1-22.25,0-31.52-14.16a70.75,70.75,0,0,1-11.12-31.73c-1.24-11.74-1.86-21-1.86-27.78q0-35.13,9.28-74.81T350,502.37q15.44-27.78,32.75-27.78a16.16,16.16,0,0,1,11.13,4.54,15.71,15.71,0,0,1,3.7,10.2q0,7.94-9.89,36.27-9.9,27.2-20.4,65.16A277.8,277.8,0,0,0,356.79,665,62.23,62.23,0,0,0,358,679.17c.81,3.4,1.86,5.47,3.08,6.23a8.18,8.18,0,0,0,4.33,1.14q26,0,64.28-38t70.45-75.37q15.07-16.77,25.92-28.4a32.52,32.52,0,0,0,28.38,16.66,31.25,31.25,0,0,0,10.78-2c1-.08,1.93-.2,2.87-.37q-.33,24.29-6.14,61.67-11.13,60.06-11.13,130.34,0,41.93,8,77.64t20.4,35.7q23.47,0,61.81-81.6T702.88,593.6q7.43-31.76,13-44.2T735,536.94a51.37,51.37,0,0,1,13.6,1.69c4.12,1.13,8.23,2.46,12.36,4q12.35,4.54,46.35,10.21,29.48,4.94,93,6.42a35.74,35.74,0,0,1,71.07,5.41Z"/><path class="cls-1" d="M946.69,631.9c-1.11,0-2.22,0-3.32-.08A315.18,315.18,0,0,1,901.63,766.6C776.61,982.41,462.32,998,319.57,791.76,295.06,756,278.43,714.46,270.34,672c-4.11-43.11.55-87.42,14.32-128.46,81.59-237,384.7-307.77,566.47-133.66a316.4,316.4,0,0,1,66.58,92.39,73.45,73.45,0,0,1,13.09-4.53c-28.64-82.36-88.26-154.39-166.48-196C635,231.15,468,254.08,363.07,356.71,278.85,437.27,240.36,560,262,673.12c10.87,115,80.93,222.24,184.89,276.94,135.42,72.75,309.87,44,413.51-68.83,62.89-66.76,96.43-159.06,93.75-249.78A64.3,64.3,0,0,1,946.69,631.9Z"/></svg>