<svg id="Layer_1" data-name="Layer 1" xmlns="http://www.w3.org/2000/svg" viewBox="0 0 2000 1031"><defs><style>.cls-1,.cls-6{fill:#fff;}.cls-2,.cls-3{fill:#ff7c1f;}.cls-3{font-size:182.42px;font-family:CooperBlack, Cooper Black;}.cls-4{letter-spacing:-0.05em;}.cls-5{letter-spacing:0.01em;}.cls-6{font-size:174.46px;font-family:FranklinGothic-Medium, Franklin Gothic Medium;font-weight:500;letter-spacing:0.2em;}</style></defs><circle class="cls-1" cx="377.86" cy="464.1" r="18.97"/><path class="cls-2" d="M679.17,502.71a26,26,0,0,1-49.52,11c-3.78.09-7.71.14-11.77.14a385.55,385.55,0,0,1-106.06-14.83q-1.81,0-6.29,13.59t-10.78,35q-9.92,37.08-25.17,82t-35.51,78.7q-20.22,33.78-44.48,33.79a19.11,19.11,0,0,1-8.09-1.65q-18-7.41-29.21-40.79t-11.24-82a517.39,517.39,0,0,1,12.59-105.49q-1.81,0-12.59,14-11.69,14.85-29.65,35.44a277,277,0,0,1-38.65,36.67Q252.06,614.42,235,614.42q-16.17,0-22.92-10.3A51.54,51.54,0,0,1,204,581.05c-.9-8.53-1.34-15.25-1.34-20.2a239.67,239.67,0,0,1,6.74-54.39q6.74-28.83,18-49t23.82-20.19a11.76,11.76,0,0,1,8.09,3.29A11.44,11.44,0,0,1,262,448q0,5.78-7.19,26.37-7.2,19.79-14.83,47.39a202,202,0,0,0-7.64,54,45.21,45.21,0,0,0,.91,10.3c.58,2.47,1.34,4,2.24,4.53a6,6,0,0,0,3.14.83q18.89,0,46.74-27.61t51.23-54.8q11-12.19,18.85-20.65A23.63,23.63,0,0,0,376,500.4a22.8,22.8,0,0,0,7.84-1.43,20.93,20.93,0,0,0,2.09-.26q-.24,17.66-4.47,44.83-8.08,43.68-8.09,94.78a256.86,256.86,0,0,0,5.84,56.46q5.85,25.94,14.83,26,17.07,0,44.94-59.33T484,523.77q5.4-23.08,9.45-32.14t13.92-9.06a37.41,37.41,0,0,1,9.89,1.23c3,.82,6,1.79,9,2.88q9,3.3,33.7,7.42,21.44,3.58,67.59,4.67a26,26,0,0,1,51.68,3.94Z"/><path class="cls-1" d="M661.23,551.62c-.81,0-1.61,0-2.41-.06a229.32,229.32,0,0,1-30.35,98C537.56,806.48,309,817.84,205.24,667.85c-17.82-26-29.92-56.2-35.8-87.1a227.63,227.63,0,0,1,10.42-93.41C239.18,315,459.58,263.56,591.75,390.15a230.28,230.28,0,0,1,48.41,67.18,53.59,53.59,0,0,1,9.52-3.29c-20.83-59.89-64.18-112.26-121.06-142.49-94-51.32-215.43-34.66-291.75,40-61.24,58.58-89.22,147.79-73.5,230.07,7.9,83.62,58.84,161.59,134.43,201.37,98.47,52.9,225.32,32,300.67-50.05,45.74-48.54,70.12-115.65,68.17-181.62A46.89,46.89,0,0,1,661.23,551.62Z"/><text class="cls-3" transform="translate(713.32 512.17) scale(0.93 1)"><tspan class="cls-4">W</tspan><tspan x="180.37" y="0">aks Digi</tspan><tspan class="cls-5" x="932.06" y="0">t</tspan><tspan x="1017.48" y="0">al</tspan></text><text class="cls-6" transform="translate(781.44 681.25)">Solutions</text></svg>